<svg width="163" height="186" viewBox="0 0 163 186" fill="none" xmlns="http://www.w3.org/2000/svg">
<path d="M8.73185e-07 186C21.4055 186 42.6013 181.784 62.3774 173.592C82.1535 165.401 100.122 153.394 115.258 138.258C130.394 123.122 142.401 105.153 150.592 85.3774C158.784 65.6013 163 44.4055 163 23C163 1.59453 158.784 -19.6013 150.592 -39.3774C142.401 -59.1535 130.394 -77.1225 115.258 -92.2584C100.122 -107.394 82.1535 -119.401 62.3774 -127.592C42.6013 -135.784 21.4054 -140 -3.05176e-05 -140L-1.14179e-05 -62.3817C11.2125 -62.3817 22.3152 -60.1733 32.6742 -55.8824C43.0332 -51.5916 52.4456 -45.3024 60.374 -37.374C68.3024 -29.4456 74.5916 -20.0332 78.8824 -9.67418C83.1733 0.684818 85.3817 11.7875 85.3817 23C85.3817 34.2125 83.1733 45.3152 78.8824 55.6742C74.5916 66.0332 68.3024 75.4456 60.374 83.374C52.4456 91.3024 43.0332 97.5916 32.6742 101.882C22.3152 106.173 11.2125 108.382 -2.96772e-06 108.382L8.73185e-07 186Z" fill="#3139F3"/>
</svg>
