<svg width="66" height="35" viewBox="0 0 66 35" fill="none" xmlns="http://www.w3.org/2000/svg">
<mask id="mask0" mask-type="alpha" maskUnits="userSpaceOnUse" x="26" y="0" width="40" height="35">
<path d="M41.405 26.5709L46.1786 35L65.9999 3.23872e-06L56.4564 1.60083e-06L46.1786 18.1482L41.405 26.5709Z" fill="#121212"/>
<path d="M42.9519 12.4505L38.1801 20.8764L26.3573 0L35.9009 1.60083e-06L42.9519 12.4505Z" fill="#121212"/>
</mask>
<g mask="url(#mask0)">
<path d="M41.405 26.5709L46.1786 35L65.9999 3.23872e-06L56.4564 1.60083e-06L46.1786 18.1482L41.405 26.5709Z" fill="#121212"/>
<path d="M42.9519 12.4505L38.1801 20.8764L26.3573 0L35.9009 1.60083e-06L42.9519 12.4505Z" fill="#121212"/>
<path d="M70.989 -6.10742L47.6062 35.2871H36.0262L47.6062 15.3565L59.7307 -6.10742L70.989 -6.10742Z" fill="#121212"/>
</g>
<mask id="mask1" mask-type="alpha" maskUnits="userSpaceOnUse" x="0" y="0" width="40" height="35">
<path d="M27.8191 14.1223L39.6426 35H30.0991L23.0473 22.5481L27.8191 14.1223Z" fill="#121212"/>
<path d="M24.5943 8.42809L19.8213 0L0 35H9.54352L19.8213 16.8517L19.8226 16.854L24.5943 8.42809Z" fill="#121212"/>
</mask>
<g mask="url(#mask1)">
<path d="M27.8191 14.1223L39.6426 35H30.0991L23.0473 22.5481L27.8191 14.1223Z" fill="#121212"/>
<path d="M24.5943 8.42809L19.8213 0L0 35H9.54352L19.8213 16.8517L19.8226 16.854L24.5943 8.42809Z" fill="#121212"/>
<path d="M27.2856 8.48254C27.0167 9.29686 14.8469 32.1204 8.79566 43.4304C-0.169157 46.4841 -17.8299 51.3021 -16.7541 46.1448C-15.4094 39.6981 -20.7883 12.8934 -13.0561 8.48254" stroke="white" stroke-width="1.02816"/>
</g>
</svg>
