<svg width="121" height="276" viewBox="0 0 121 276" fill="none" xmlns="http://www.w3.org/2000/svg">
<path d="M138 276C119.878 276 101.933 272.431 85.1897 265.495C68.4467 258.56 53.2337 248.395 40.4193 235.581C27.6048 222.766 17.4398 207.553 10.5046 190.81C3.56947 174.067 -7.61648e-06 156.122 -6.03217e-06 138C-4.44786e-06 119.878 3.56947 101.933 10.5046 85.1897C17.4398 68.4467 27.6048 53.2337 40.4193 40.4193C53.2338 27.6048 68.4468 17.4398 85.1897 10.5046C101.933 3.56948 119.878 3.6557e-06 138 6.03217e-06L138 138L138 276Z" fill="white"/>
</svg>
