<svg width="42" height="42" viewBox="0 0 42 42" fill="none" xmlns="http://www.w3.org/2000/svg">
<path d="M30.4387 9.61649C29.7688 9.38378 29.0401 9.38378 28.3704 9.61649L3.42248 18.2935C1.77838 18.8644 0.908527 20.6601 1.47948 22.3042C1.77042 23.1418 2.40082 23.8182 3.21602 24.1672L13.4468 28.551L17.8313 38.7825C18.5224 40.3842 20.3811 41.1225 21.9828 40.4315C22.345 40.2752 22.6747 40.0525 22.9549 39.7748C23.2923 39.4373 23.5493 39.0281 23.7065 38.5775L32.3812 13.6274C32.9524 11.9834 32.0827 10.1876 30.4387 9.61649ZM21.7204 37.8853C21.5299 38.4332 20.9313 38.723 20.3833 38.5325C20.1041 38.4355 19.8787 38.2253 19.7625 37.9536L15.4923 27.9909L30.3185 13.1647L21.7204 37.8853ZM14.0068 26.5054L4.04418 22.2352C3.64205 22.07 3.38801 21.6689 3.4106 21.2348C3.41626 20.7983 3.69949 20.414 4.11473 20.2796L28.833 11.6792L14.0068 26.5054Z" fill="white"/>
</svg>
